HIERARCHY
ROOT Hips
{
	OFFSET 51.116199 -9.192845 95.675102
	CHANNELS 6 Xposition Yposition Zposition Xrotation Yrotation Zrotation
	JOINT spine
	{
		OFFSET 0.000000 -0.458069 7.965683
		CHANNELS 3 Xrotation Yrotation Zrotation
		JOINT spine1
		{
			OFFSET 0.000000 -0.000001 10.243103
			CHANNELS 3 Xrotation Yrotation Zrotation
			JOINT spine2
			{
				OFFSET 0.000000 -0.000002 9.814751
				CHANNELS 3 Xrotation Yrotation Zrotation
				JOINT Neck
				{
					OFFSET 0.000000 -1.201384 25.198608
					CHANNELS 3 Xrotation Yrotation Zrotation
					JOINT Head
					{
						OFFSET 0.000000 -0.000002 7.613144
						CHANNELS 3 Xrotation Yrotation Zrotation
						End Site
						{
							OFFSET 0.000000 6.077327 18.428101
						}
					}
				}
				JOINT RightShoulder
				{
					OFFSET -4.132702 0.575449 10.599197
					CHANNELS 3 Xrotation Yrotation Zrotation
					JOINT RightArm
					{
						OFFSET 0.000000 -0.000002 13.901794
						CHANNELS 3 Xrotation Yrotation Zrotation
						JOINT RightArmRoll
						{
							OFFSET 0.000000 -0.000002 7.017883
							CHANNELS 3 Xrotation Yrotation Zrotation
							JOINT RightForeArm
							{
								OFFSET 0.000000 -0.000003 20.440598
								CHANNELS 3 Xrotation Yrotation Zrotation
								JOINT RightForeArmRoll
								{
									OFFSET 0.000000 -0.000001 7.875153
									CHANNELS 3 Xrotation Yrotation Zrotation
									JOINT RightHand
									{
										OFFSET 0.000000 -0.000003 15.803696
										CHANNELS 3 Xrotation Yrotation Zrotation
										End Site
										{
											OFFSET 0.000000 0.000000 0.100006
										}
									}
								}
							}
						}
					}
				}
				JOINT LeftShoulder
				{
					OFFSET 4.132702 0.575449 10.599197
					CHANNELS 3 Xrotation Yrotation Zrotation
					JOINT LeftArm
					{
						OFFSET 0.000000 -0.000002 13.901794
						CHANNELS 3 Xrotation Yrotation Zrotation
						JOINT LeftArmRoll
						{
							OFFSET 0.000000 -0.000002 7.017883
							CHANNELS 3 Xrotation Yrotation Zrotation
							JOINT LeftForeArm
							{
								OFFSET 0.000000 -0.000003 20.440598
								CHANNELS 3 Xrotation Yrotation Zrotation
								JOINT LeftForeArmRoll
								{
									OFFSET 0.000000 -0.000001 7.875153
									CHANNELS 3 Xrotation Yrotation Zrotation
									JOINT LeftHand
									{
										OFFSET 0.000000 -0.000003 15.803696
										CHANNELS 3 Xrotation Yrotation Zrotation
										End Site
										{
											OFFSET 0.000000 0.000000 0.100006
										}
									}
								}
							}
						}
					}
				}
			}
		}
	}
	JOINT RightUpLeg
	{
		OFFSET -7.060471 1.086090 -1.294701
		CHANNELS 3 Xrotation Yrotation Zrotation
		JOINT RightUpLegRoll
		{
			OFFSET 0.000000 -0.000003 18.530800
			CHANNELS 3 Xrotation Yrotation Zrotation
			JOINT RightLeg
			{
				OFFSET 0.000000 0.000004 -22.947601
				CHANNELS 3 Xrotation Yrotation Zrotation
				JOINT RightLegRoll
				{
					OFFSET 0.000000 -0.000004 23.022598
					CHANNELS 3 Xrotation Yrotation Zrotation
					JOINT RightFoot
					{
						OFFSET 0.000000 -0.000004 19.162498
						CHANNELS 3 Xrotation Yrotation Zrotation
						JOINT RightToeBase
						{
							OFFSET 0.000000 -0.000002 16.018799
							CHANNELS 3 Xrotation Yrotation Zrotation
							End Site
							{
								OFFSET 0.006790 0.894205 7.757812
							}
						}
					}
				}
			}
		}
	}
	JOINT LeftUpLeg
	{
		OFFSET 7.060471 1.086090 -1.294701
		CHANNELS 3 Xrotation Yrotation Zrotation
		JOINT LeftUpLegRoll
		{
			OFFSET 0.000000 -0.000003 18.530899
			CHANNELS 3 Xrotation Yrotation Zrotation
			JOINT LeftLeg
			{
				OFFSET 0.000000 -0.000004 22.947495
				CHANNELS 3 Xrotation Yrotation Zrotation
				JOINT LeftLegRoll
				{
					OFFSET 0.000000 -0.000004 23.235504
					CHANNELS 3 Xrotation Yrotation Zrotation
					JOINT LeftFoot
					{
						OFFSET 0.000000 -0.000003 18.949600
						CHANNELS 3 Xrotation Yrotation Zrotation
						JOINT LeftToeBase
						{
							OFFSET 0.000000 -0.000003 16.018799
							CHANNELS 3 Xrotation Yrotation Zrotation
							End Site
							{
								OFFSET -0.030430 0.894206 7.757828
							}
						}
					}
				}
			}
		}
	}
}
MOTION
Frames: 4
Frame Time: 0.041667
52.027599 -9.220019 95.725700 -1.149498 0.584495 0.487031 -2.146068 -0.343432 0.006761 -0.288198 -0.694953 0.017687 1.356929 -0.694695 0.026017 21.496258 4.746356 -1.027054 -2.689900 -5.022298 -0.484762 8.798727 -69.372872 8.469150 -54.406862 -117.436633 -31.722701 0.000001 -0.000001 -0.000001 0.019966 -1.777160 -0.440062 0.000001 0.000012 -3.106540 -5.000183 -7.999940 0.000027 1.275273 77.180024 0.752825 -61.566362 114.640477 37.843759 0.000001 -0.000001 0.000001 0.002662 -0.303971 -0.333958 0.000002 -0.000005 3.016278 -5.000145 8.000099 -0.000013 1.568630 -176.481310 -2.584304 -179.999991 0.000006 -1.156005 175.336775 -2.103025 -0.601499 -0.000004 -0.000001 0.071424 69.490864 6.952010 1.939097 25.456947 -7.355614 0.000010 0.180907 173.507022 0.237339 -0.000005 -0.000004 -1.133310 -5.369143 1.903925 0.300413 -0.000003 0.000004 -0.036888 69.421483 -6.720230 -2.551326 25.456953 7.355613 -0.000001 
52.028198 -9.211971 95.727798 -1.148391 0.585349 0.485893 -2.148668 -0.343661 0.006645 -0.292183 -0.693346 0.015934 1.352948 -0.693105 0.024251 21.512891 4.726956 -1.021703 -2.685963 -5.005943 -0.480412 8.797684 -69.386239 8.465821 -54.460954 -117.426183 -31.767900 -0.000001 -0.000001 -0.000001 0.019969 -1.773330 -0.440083 0.000001 0.000012 -3.106542 -5.000183 -7.999941 0.000027 1.282962 77.164486 0.742924 -61.513872 114.594715 37.841160 -0.000001 -0.000001 0.000001 -0.000553 -0.226188 -0.331904 0.000003 -0.000005 3.015908 -5.000142 8.000100 -0.000012 1.568817 -176.483318 -2.585467 -179.999991 0.000006 -1.156005 175.336611 -2.103025 -0.601505 -0.000004 -0.000001 0.071424 69.492032 6.952022 1.939124 25.456948 -7.355613 0.000011 0.184565 173.505042 0.235611 -0.000005 -0.000004 -1.133280 -5.363532 1.904540 0.300375 -0.000002 0.000004 -0.036888 69.419434 -6.720128 -2.551732 25.456950 7.355612 0.000000 
52.024197 -9.215708 95.727692 -1.147179 0.586163 0.484832 -2.151298 -0.343911 0.006536 -0.296154 -0.691659 0.014127 1.348978 -0.691435 0.022431 21.529226 4.707431 -1.016236 -2.681862 -4.989587 -0.475980 8.797018 -69.399892 8.462850 -54.513662 -117.416416 -31.810814 0.000002 -0.000000 -0.000001 0.019966 -1.768620 -0.440115 0.000001 0.000013 -3.106549 -5.000183 -7.999939 0.000028 1.289818 77.148653 0.733880 -61.461573 114.549226 37.839224 0.000000 0.000000 -0.000001 -0.005500 -0.148435 -0.329789 0.000002 -0.000004 3.015551 -5.000148 8.000100 -0.000012 1.568833 -176.485313 -2.586750 -179.999991 0.000005 -1.156005 175.336338 -2.103024 -0.601515 -0.000004 -0.000001 0.071424 69.493405 6.952009 1.939137 25.456948 -7.355615 0.000011 0.188252 173.504031 0.233869 -0.000005 -0.000005 -1.133250 -5.357570 1.905187 0.300331 -0.000002 0.000004 -0.036888 69.417180 -6.719979 -2.552242 25.456952 7.355613 0.000000 
52.023800 -9.226237 95.726997 -1.145910 0.586951 0.483826 -2.153946 -0.344177 0.006434 -0.300113 -0.689917 0.012283 1.345017 -0.689711 0.020573 21.545453 4.687819 -1.010696 -2.677646 -4.973212 -0.471491 8.796602 -69.413737 8.460122 -54.566538 -117.406758 -31.853267 0.000002 -0.000001 -0.000000 0.019964 -1.763279 -0.440156 0.000001 0.000013 -3.106560 -5.000184 -7.999938 0.000027 1.296074 77.132514 0.725451 -61.407547 114.504501 37.835635 0.000000 0.000000 -0.000000 -0.011656 -0.070702 -0.327629 0.000002 -0.000005 3.015180 -5.000147 8.000100 -0.000013 1.568720 -176.487307 -2.588122 -179.999991 0.000005 -1.156004 175.335969 -2.103023 -0.601528 -0.000004 -0.000001 0.071424 69.494784 6.952029 1.939054 25.456950 -7.355613 0.000011 0.191964 173.502036 0.232111 -0.000005 -0.000005 -1.133220 -5.351368 1.905863 0.300286 -0.000002 0.000004 -0.036888 69.414810 -6.719824 -2.552757 25.456948 7.355611 -0.000001 
